<svg t="1760945644435" class="icon" viewBox="0 0 1024 1024" version="1.1" xmlns="http://www.w3.org/2000/svg" p-id="15636" width="200" height="200"><path d="M128 0C57.088 0 0 57.088 0 128v260.576h121.952a83.104 83.104 0 0 1 83.808 83.616v0.896c34.656-4.064 55.968-15.008 71.424-29.152 17.76-16.288 29.44-38.816 43.36-63.968 13.856-25.184 30.304-53.088 60.064-73.504 24.544-16.864 57.824-27.488 101.728-29.28v-19.2a84.128 84.128 0 0 1 84.128-84.32h336.768a84.224 84.224 0 0 1 84.224 84.32v82.848c0 46.56-37.664 86.56-84.224 86.56H566.464c-46.592 0-84.128-40.032-84.128-86.624v-19.328c-36.384 1.568-60.064 10.08-76.704 21.504-20.48 14.08-33.024 34.208-46.336 58.368-13.312 24.096-26.88 52.064-52.128 75.232l-3.296 2.944c131.04 17.696 190.496 66.336 241.12 110.624 59.296 51.84 105.632 97.056 268.8 97.632v-19.616c0-46.592 38.144-83.04 84.736-83.04h125.536V127.968c0-70.912-57.088-128-128-128z m438.432 230.816c-15.744 0-29.312 11.424-29.312 27.168v82.848c0 15.712 13.568 27.136 29.312 27.136h336.736l0.928 0.032a26.24 26.24 0 0 0 26.208-26.208l-0.032-0.992v0.064-82.848l0.032-0.96a26.24 26.24 0 0 0-26.208-26.208l-0.96 0.032h0.032zM0 445.792v139.392h121.952a29.696 29.696 0 0 0 28.928-29.44v-82.88c0-15.712-13.216-27.104-28.928-27.104z m205.696 71.232v39.104a83.84 83.84 0 0 1-83.744 83.84H0v256c0 70.912 57.088 128 128 128h768c70.912 0 128-57.088 128-128v-59.424h-125.536c-46.592 0-84.736-38.944-84.736-85.536v-18.976c-172.64-1.376-238.848-56.864-297.952-108.544-61.312-53.632-117.376-103.712-310.112-106.464zM898.464 640h-0.128a27.488 27.488 0 0 0-27.488 27.488v0.704-0.032 82.848c0 15.712 11.872 26.112 27.616 26.112H1024V640z" fill="#8F0000" p-id="15637"></path></svg>